<?xml version="1.0" encoding="UTF-8"?>
<svg width="25px" height="22px" viewBox="0 0 25 22" version="1.1" xmlns="http://www.w3.org/2000/svg" xmlns:xlink="http://www.w3.org/1999/xlink">
    <!-- Generator: Sketch 53 (72520) - https://sketchapp.com -->
    <title>icon/categories/photoshoot dark</title>
    <desc>Created with Sketch.</desc>
    <g id="icon/categories/photoshoot-dark" stroke="none" stroke-width="1" fill="none" fill-rule="evenodd">
        <g id="Camera" transform="translate(0.000000, 1.000000)" fill="#6DA3D3">
            <path d="M13,8 C10.7907083,8 9,9.79162402 9,12 C9,14.2092917 10.7905737,16 13,16 C15.2082413,16 17,14.2094263 17,12 C17,9.79175869 15.208376,8 13,8 Z" id="Fill-1"></path>
            <path d="M22.5003055,3.75000052 L19.5000277,3.75000052 C19.0876944,3.75000052 18.6428333,3.42991714 18.5136944,3.03819487 L17.737861,0.710722321 C17.6065666,0.320111156 17.1627777,0 16.7504444,0 L8.2498887,0 C7.83755536,0 7.39269425,0.320083378 7.26355536,0.711805654 L6.48772202,3.0392782 C6.35751368,3.43100048 5.91372201,3.75108385 5.50138867,3.75108385 L2.49999975,3.74999774 C1.12522196,3.74999774 0,4.87522012 0,6.24999809 L0,17.4999997 C0,18.8747776 1.12522196,20 2.49999975,20 L22.5,20 C23.8747778,20 25,18.8747776 25,17.4999997 L25,6.24999809 C25,4.87522012 23.8747778,3.74999774 22.5,3.74999774 L22.5003055,3.75000052 Z M12.962963,18.1818182 C9.38230453,18.1818182 6.48148148,15.3337374 6.48148148,11.8181818 C6.48148148,8.30488889 9.38230453,5.45454545 12.962963,5.45454545 C16.5413169,5.45454545 19.4444444,8.30488889 19.4444444,11.8181818 C19.4444444,15.3337374 16.5413169,18.1818182 12.962963,18.1818182 Z M21.2962953,8.18181818 C20.785818,8.18181818 20.3703704,7.77469163 20.3703704,7.27221535 C20.3703704,6.77073666 20.7868869,6.36363636 21.2962953,6.36363636 C21.8078149,6.36363636 22.2222203,6.77076292 22.2222203,7.27221535 C22.2232652,7.77369403 21.8077881,8.18181818 21.2962953,8.18181818 Z" id="Fill-2"></path>
        </g>
    </g>
</svg>