<?xml version="1.0" encoding="UTF-8"?>
<svg width="25px" height="22px" viewBox="0 0 25 22" version="1.1" xmlns="http://www.w3.org/2000/svg" xmlns:xlink="http://www.w3.org/1999/xlink">
    <!-- Generator: Sketch 53 (72520) - https://sketchapp.com -->
    <title>icon/categories/showing dark</title>
    <desc>Created with Sketch.</desc>
    <g id="icon/categories/showing-dark" stroke="none" stroke-width="1" fill="none" fill-rule="evenodd">
        <g id="icon/categories/showing" fill="#6DA3D3">
            <path d="M2.16411672,12.0434048 C2.07305792,12.1179096 2,12.2744792 2,12.3932479 L2,21.5691645 C2,21.8067183 2.18846846,22 2.42246903,22 L8.20139868,22 L8.20033885,17.774849 C8.20033885,15.6357921 9.90078619,13.900481 11.9994701,13.900481 C14.098154,13.900481 15.7986013,15.6346035 15.7986013,17.774849 L15.7986013,22 L21.577531,22 C21.810469,22 22,21.8077992 22,21.5691645 L22,12.3932479 C22,12.274471 21.9258822,12.117904 21.8358833,12.0434048 L11.9995053,4 L2.16411672,12.0434048 Z" id="Fill-1"></path>
            <path d="M0.0808775938,9.6168859 L11.9584267,0.188481483 C12.2752391,-0.0628271611 12.7244317,-0.0628271611 13.0412441,0.188481483 L24.9187932,9.6168859 C25.0121037,9.69098959 25.0272916,9.82631069 24.9524271,9.91761167 L24.1408418,10.9196185 C24.0659773,11.0119807 23.9292669,11.0270143 23.8370285,10.9529106 L12.4988882,1.95505704 L1.16297059,10.9529106 C1.06966009,11.0270143 0.934035708,11.011978 0.859157319,10.9196185 L0.0475720151,9.91761167 C-0.0272924864,9.82632443 -0.0121018227,9.69100334 0.0812059055,9.6168859 L0.0808775938,9.6168859 Z" id="Fill-2"></path>
            <path d="M17,1.28331822 C17,1.12616444 17.1078128,1 17.24,1 L19.76,1 C19.8921872,1 20,1.12616444 20,1.28331822 L20,6 L17,3.16030145 L17,1.28331822 Z" id="Fill-3"></path>
        </g>
    </g>
</svg>